<svg width="100" height="100" viewBox="0 0 100 100" fill="none" xmlns="http://www.w3.org/2000/svg">
<path d="M70.8334 87.5V79.1667C70.8334 74.7464 69.0775 70.5072 65.9519 67.3816C62.8263 64.256 58.587 62.5 54.1667 62.5H20.8334C16.4131 62.5 12.1739 64.256 9.0483 67.3816C5.9227 70.5072 4.16675 74.7464 4.16675 79.1667V87.5" stroke="white" stroke-width="2" stroke-linecap="round" stroke-linejoin="round"/>
<path d="M37.4999 45.8333C46.7047 45.8333 54.1666 38.3714 54.1666 29.1667C54.1666 19.9619 46.7047 12.5 37.4999 12.5C28.2952 12.5 20.8333 19.9619 20.8333 29.1667C20.8333 38.3714 28.2952 45.8333 37.4999 45.8333Z" stroke="white" stroke-width="2" stroke-linecap="round" stroke-linejoin="round"/>
<path d="M95.8333 87.4998V79.1665C95.8305 75.4737 94.6014 71.8864 92.3389 68.9678C90.0765 66.0492 86.9088 63.9647 83.3333 63.0415" stroke="white" stroke-width="2" stroke-linecap="round" stroke-linejoin="round"/>
<path d="M66.6667 13.0415C70.2518 13.9594 73.4294 16.0444 75.6986 18.9678C77.9678 21.8912 79.1994 25.4866 79.1994 29.1873C79.1994 32.888 77.9678 36.4835 75.6986 39.4069C73.4294 42.3303 70.2518 44.4153 66.6667 45.3332" stroke="white" stroke-width="2" stroke-linecap="round" stroke-linejoin="round"/>
</svg>
