<svg width="100" height="100" viewBox="0 0 100 100" fill="none" xmlns="http://www.w3.org/2000/svg">
<path d="M8.33325 12.5H33.3333C37.7535 12.5 41.9928 14.2559 45.1184 17.3816C48.244 20.5072 49.9999 24.7464 49.9999 29.1667V87.5C49.9999 84.1848 48.683 81.0054 46.3388 78.6612C43.9945 76.317 40.8151 75 37.4999 75H8.33325V12.5Z" stroke="white" stroke-width="2" stroke-linecap="round" stroke-linejoin="round"/>
<path d="M91.6667 12.5H66.6667C62.2464 12.5 58.0072 14.2559 54.8816 17.3816C51.7559 20.5072 50 24.7464 50 29.1667V87.5C50 84.1848 51.317 81.0054 53.6612 78.6612C56.0054 76.317 59.1848 75 62.5 75H91.6667V12.5Z" stroke="white" stroke-width="2" stroke-linecap="round" stroke-linejoin="round"/>
</svg>
